<?xml version="1.0" encoding="UTF-8"?>
<svg width="31px" height="37px" viewBox="0 0 31 37" version="1.1" xmlns="http://www.w3.org/2000/svg" xmlns:xlink="http://www.w3.org/1999/xlink">
    <!-- Generator: Sketch 46.1 (44463) - http://www.bohemiancoding.com/sketch -->
    <title>apple</title>
    <desc>Created with Sketch.</desc>
    <defs></defs>
    <g id="Page-1" stroke="none" stroke-width="1" fill="none" fill-rule="evenodd" opacity="0.2">
        <g id="Landing-Desktop-F" transform="translate(-539.000000, -1156.000000)" fill="#3A2568">
            <g id="logos" transform="translate(352.000000, 1156.000000)">
                <path d="M197.101771,36.1624789 L196.583912,36.1624789 C196.565998,36.1570906 196.548372,36.148382 196.530113,36.1468073 C195.930183,36.0948593 195.381386,35.8921331 194.863451,35.5968188 C194.243152,35.2431248 193.708127,34.7829354 193.213687,34.2776852 C192.214123,33.2562565 191.366407,32.1145581 190.579338,30.9300946 C189.46201,29.2485962 188.645673,27.4246298 188.029842,25.5108075 C187.498749,23.860254 187.155294,22.1740694 187.065186,20.4410215 C187.055194,20.2488632 187.043302,20.0567999 187.032293,19.8646986 L187.032293,19.1437257 C187.03703,19.1067095 187.043475,19.069826 187.046256,19.0326769 C187.079514,18.5884439 187.099365,18.1428068 187.147737,17.7002053 C187.25246,16.7417289 187.470248,15.8071204 187.820359,14.9065874 C188.550118,13.0294778 189.685303,11.4540383 191.366177,10.2909763 C192.092541,9.78836342 192.874163,9.39228372 193.715703,9.11404512 C194.378697,8.89483144 195.059144,8.7581312 195.754686,8.69350927 C196.294525,8.64336371 196.832734,8.64503333 197.369255,8.7354585 C198.161809,8.8690282 198.92824,9.09562237 199.682281,9.36621486 C200.446948,9.64063988 201.206206,9.9310022 201.993831,10.1374281 C202.327102,10.2247796 202.662904,10.322092 203.010541,10.2129026 C203.730845,9.98664992 204.450477,9.75829126 205.169322,9.52754201 C205.8093,9.32212168 206.442795,9.09529983 207.088315,8.9089663 C207.826092,8.69599473 208.583163,8.56458794 209.354389,8.56804102 C210.451099,8.57293605 211.521974,8.75649952 212.565038,9.0897787 C214.153388,9.59730562 215.486932,10.4768166 216.530897,11.7729549 C216.639206,11.9074354 216.741455,12.046659 216.849419,12.1874574 C216.795484,12.2212672 216.755302,12.2467479 216.714833,12.2717543 C215.98515,12.7227987 215.314312,13.2449348 214.729458,13.8721242 C213.696157,14.9802215 213.071523,16.2815205 212.852699,17.7715816 C212.732114,18.5925989 212.734397,19.4157412 212.84681,20.2383902 C212.963693,21.0938624 213.200451,21.9149555 213.610154,22.6779914 C214.559638,24.446386 215.985189,25.7066654 217.835307,26.5052377 L217.835307,26.5242107 C217.82167,26.551342 217.805712,26.5776006 217.794741,26.6057375 C217.584644,27.144494 217.390792,27.6900427 217.162723,28.2212289 C216.262473,30.3177989 214.978337,32.1740383 213.487133,33.8963475 C212.950612,34.5160047 212.348074,35.0669797 211.631722,35.4829241 C210.75911,35.9895972 209.823263,36.2134403 208.811462,36.0822043 C208.043688,35.9826342 207.308655,35.7624529 206.59399,35.4754677 C205.790062,35.1526427 204.971308,34.887116 204.108249,34.767776 C203.353901,34.6634626 202.604425,34.6936486 201.857174,34.8264025 C201.106029,34.9598394 200.388219,35.2004545 199.681706,35.4807991 C199.041249,35.7349421 198.387922,35.9514806 197.70711,36.0751274 C197.506679,36.1115365 197.303621,36.1337539 197.101771,36.1624789 Z M210.086603,0 C210.09627,0.394334188 210.134285,0.79035697 210.110751,1.18273694 C210.002212,2.99211311 209.229547,4.52262457 208.050459,5.8741071 C207.509431,6.49427654 206.904207,7.04561204 206.214151,7.50221552 C205.53635,7.95069856 204.807185,8.28190968 204.006019,8.44972559 C203.527748,8.54992184 203.044681,8.57876075 202.557472,8.55267292 C202.53227,8.55132584 202.507278,8.54614622 202.476533,8.54201011 C202.427413,8.19161732 202.418456,7.8417368 202.444215,7.49172346 C202.577534,5.68103817 203.340494,4.14024335 204.522325,2.78306893 C205.432893,1.73741169 206.574772,1.01981606 207.860597,0.512801406 C208.516091,0.25433265 209.191897,0.0731597685 209.897949,0.0149886455 C209.916381,0.013470808 209.934219,0.0051416746 209.952344,0 L210.086603,0 Z" id="apple"></path>
            </g>
        </g>
    </g>
</svg>