<?xml version="1.0" encoding="UTF-8"?>
<svg width="39px" height="36px" viewBox="0 0 39 36" version="1.1" xmlns="http://www.w3.org/2000/svg" xmlns:xlink="http://www.w3.org/1999/xlink">
    <!-- Generator: Sketch 46.2 (44496) - http://www.bohemiancoding.com/sketch -->
    <title>Combined Shape Copy</title>
    <desc>Created with Sketch.</desc>
    <defs>
        <linearGradient x1="99.1118421%" y1="100.888158%" x2="-0.888157895%" y2="-0.888157895%" id="linearGradient-1">
            <stop stop-color="#5315FF" offset="0%"></stop>
            <stop stop-color="#781C9B" offset="100%"></stop>
        </linearGradient>
    </defs>
    <g id="Page-1" stroke="none" stroke-width="1" fill="none" fill-rule="evenodd">
        <g id="Landing-Desktop-F" transform="translate(-692.000000, -1299.000000)" fill="url(#linearGradient-1)">
            <g id="Group-7" transform="translate(663.000000, 1269.000000)">
                <path d="M47.0572117,64.866577 C46.964613,64.8007123 46.7880596,64.6829487 46.5364248,64.5290359 C46.0440615,64.2278811 45.4799985,63.9243545 44.8577503,63.6406809 C43.1419119,62.8584558 41.3397163,62.3845474 39.6004627,62.3630959 C37.8356634,62.3845092 36.0364293,62.8586887 34.3123632,63.6417806 C33.6862236,63.9261809 33.116999,64.2305987 32.6188091,64.5327659 C32.3307246,64.7074978 32.1388755,64.8361905 32.0566153,64.8961348 C30.7859776,65.8220684 29.0076336,64.908643 29.0076336,63.3300613 L29.0076336,36.2589646 C29.0076336,35.8469282 29.1384419,35.4456648 29.3809869,35.1136777 C29.8572511,34.461784 30.7224472,33.5802934 32.0002279,32.7188912 C34.0963445,31.3058166 36.6303778,30.4580153 39.5772901,30.4580153 C42.6903596,30.4580153 45.320458,31.7779274 47.4469441,33.9282493 C47.7277118,34.2121641 47.9869812,34.4959912 48.2251908,34.7756494 C48.4634005,34.4959912 48.7226699,34.2121641 49.0034375,33.9282493 C51.1299237,31.7779274 53.7600221,30.4580153 56.8730916,30.4580153 C59.8200039,30.4580153 62.3540372,31.3058166 64.4501538,32.7188912 C65.7279345,33.5802934 66.5931305,34.461784 67.0693948,35.1136777 C67.3119398,35.4456648 67.4427481,35.8469282 67.4427481,36.2589646 L67.4427481,63.3300613 C67.4427481,64.908643 65.6644041,65.8220684 64.3937664,64.8961348 C64.3115062,64.8361905 64.1196571,64.7074978 63.8315726,64.5327659 C63.3333827,64.2305987 62.7641581,63.9261809 62.1380185,63.6417806 C60.4139524,62.8586887 58.6147182,62.3845092 56.849919,62.3630959 C55.1106654,62.3845474 53.3084698,62.8584558 51.5926314,63.6406809 C50.9703832,63.9243545 50.4063201,64.2278811 49.9139569,64.5290359 C49.6623221,64.6829487 49.4857686,64.8007123 49.39317,64.866577 C49.3509949,64.898761 49.3075571,64.929193 49.2629923,64.9578038 C48.9341426,65.1718459 48.5755963,65.2685332 48.2251908,65.2671612 C47.8747854,65.2685332 47.5162391,65.1718459 47.1873894,64.9578038 C47.1428246,64.929193 47.0993867,64.898761 47.0572117,64.866577 L47.0572117,64.866577 Z M32.851145,37.013432 C32.851145,37.4042514 32.851145,59.3104562 32.851145,60.0234187 C35.0226494,59.0370949 37.2020638,58.5246162 39.6002337,58.4960747 C41.9728161,58.524578 44.1379968,59.1297889 46.3034347,60.1169796 C46.3034347,59.221856 46.3034351,38.705768 46.3034351,38.705768 C46.3034351,38.705768 45.2530425,37.1926034 44.722417,36.6560301 C43.2634986,35.1807587 41.5589142,34.3253148 39.5772901,34.3253148 C37.4295088,34.3253148 35.6288592,34.9277508 34.1395712,35.9317384 C33.6239959,36.2793081 33.1866258,36.6492528 32.851145,37.013432 Z M63.5992366,37.013432 C63.2637559,36.6492528 62.8263858,36.2793081 62.3108104,35.9317384 C60.8215224,34.9277508 59.0208729,34.3253148 56.8730916,34.3253148 C54.8914675,34.3253148 53.1868831,35.1807587 51.7279647,36.6560301 C51.1973392,37.1926034 50.1469466,38.705768 50.1469466,38.705768 C50.1469466,38.705768 50.146947,59.221856 50.146947,60.1169796 C52.3123849,59.1297889 54.4775655,58.524578 56.850148,58.4960747 C59.2483179,58.5246162 61.4277323,59.0370949 63.5992366,60.0234187 C63.5992366,59.3104562 63.5992366,37.4042514 63.5992366,37.013432 Z" id="Combined-Shape-Copy"></path>
            </g>
        </g>
    </g>
</svg>