<?xml version="1.0" encoding="UTF-8"?>
<svg width="39px" height="39px" viewBox="0 0 39 39" version="1.1" xmlns="http://www.w3.org/2000/svg" xmlns:xlink="http://www.w3.org/1999/xlink">
    <!-- Generator: Sketch 46.1 (44463) - http://www.bohemiancoding.com/sketch -->
    <title>Combined Shape</title>
    <desc>Created with Sketch.</desc>
    <defs>
        <linearGradient x1="99.1118421%" y1="100.888158%" x2="-0.888157895%" y2="-0.888157895%" id="linearGradient-1">
            <stop stop-color="#C316DC" offset="0%"></stop>
            <stop stop-color="#A016DC" offset="100%"></stop>
        </linearGradient>
    </defs>
    <g id="Page-1" stroke="none" stroke-width="1" fill="none" fill-rule="evenodd">
        <g id="Landing-Desktop-F" transform="translate(-692.000000, -1631.000000)" fill="url(#linearGradient-1)">
            <g id="Group-5" transform="translate(663.000000, 1396.000000)">
                <g id="Group-6-Copy" transform="translate(0.000000, 206.000000)">
                    <path d="M34.5113779,43.6627588 C35.4685742,35.4114769 42.4503946,29.0076336 50.9211218,29.0076336 C60.045764,29.0076336 67.4427481,36.4383552 67.4427481,45.6046149 C67.4427481,48.1573114 66.8690693,50.575407 65.8441601,52.7358949 L67.3562276,59.4882537 C67.7768575,61.366638 66.5979524,62.5446805 64.7252015,62.1199688 L58.0148935,60.5981719 C56.3598228,61.389791 54.5529998,61.913008 52.6501983,62.1117949 C50.2634094,65.3351704 46.4311832,67.4250316 42.1105135,67.4250316 C39.8960117,67.4250316 37.809821,66.8760379 35.9807913,65.9068132 L31.5256931,67.2853003 C29.6774672,67.8571745 28.6352055,66.8225233 29.1988724,64.9706099 L30.5561254,60.5113892 C29.56805,58.6705116 29.0076336,56.5661627 29.0076336,54.3310099 C29.0076336,49.9304162 31.1799295,46.0368464 34.5113779,43.6627588 Z M54.6419441,58.1676641 C55.2854783,57.9756976 55.9127835,57.7336695 56.5196434,57.4434088 L57.606565,56.9235351 L63.5222871,58.2879624 L62.1866985,52.3236964 L62.7042374,51.2327351 C63.5302661,49.4914833 63.964511,47.5825245 63.964511,45.6046149 C63.964511,38.3680941 58.1247867,32.5017349 50.9211218,32.5017349 C45.0510994,32.5017349 40.0867429,36.3970371 38.449794,41.7548542 C39.6115688,41.4177172 40.8399211,41.2369882 42.1105135,41.2369882 C49.3470343,41.2369882 55.2133935,47.0993814 55.2133935,54.3310099 C55.2133935,55.6659767 55.0134822,56.9542832 54.6419441,58.1676641 Z M34.3233902,60.1536624 L33.4273696,63.0504331 L36.3280339,62.153798 L37.6235778,62.8396473 C38.9933418,63.564788 40.5204487,63.9486468 42.1105135,63.9486468 C47.4137049,63.9486468 51.7192922,59.6502005 51.7192922,54.3398681 C51.7192922,49.0295358 47.4137049,44.7310895 42.1105135,44.7310895 C36.8073222,44.7310895 32.5017349,49.0295358 32.5017349,54.3398681 C32.5017349,55.9504123 32.895601,57.4961722 33.6383817,58.8786818 L34.3233902,60.1536624 Z M42.1105135,56.0869188 C41.1456441,56.0869188 40.3634629,55.3047376 40.3634629,54.3398681 C40.3634629,53.3749987 41.1456441,52.5928175 42.1105135,52.5928175 C43.075383,52.5928175 43.8575642,53.3749987 43.8575642,54.3398681 C43.8575642,55.3047376 43.075383,56.0869188 42.1105135,56.0869188 Z M47.3516655,56.0869188 C46.3867961,56.0869188 45.6046149,55.3047376 45.6046149,54.3398681 C45.6046149,53.3749987 46.3867961,52.5928175 47.3516655,52.5928175 C48.3165349,52.5928175 49.0987162,53.3749987 49.0987162,54.3398681 C49.0987162,55.3047376 48.3165349,56.0869188 47.3516655,56.0869188 Z M36.8693616,56.0869188 C35.9044921,56.0869188 35.1223109,55.3047376 35.1223109,54.3398681 C35.1223109,53.3749987 35.9044921,52.5928175 36.8693616,52.5928175 C37.834231,52.5928175 38.6164122,53.3749987 38.6164122,54.3398681 C38.6164122,55.3047376 37.834231,56.0869188 36.8693616,56.0869188 Z" id="Combined-Shape"></path>
                </g>
            </g>
        </g>
    </g>
</svg>