<?xml version="1.0" encoding="UTF-8"?>
<svg width="36px" height="42px" viewBox="0 0 36 42" version="1.1" xmlns="http://www.w3.org/2000/svg" xmlns:xlink="http://www.w3.org/1999/xlink">
    <!-- Generator: Sketch 46.2 (44496) - http://www.bohemiancoding.com/sketch -->
    <title>Combined Shape</title>
    <desc>Created with Sketch.</desc>
    <defs>
        <linearGradient x1="-10.4437934%" y1="0%" x2="100%" y2="100%" id="linearGradient-1">
            <stop stop-color="#4D16DC" offset="0%"></stop>
            <stop stop-color="#00AEEF" offset="100%"></stop>
        </linearGradient>
    </defs>
    <g id="Page-1" stroke="none" stroke-width="1" fill="none" fill-rule="evenodd" opacity="0.5">
        <g id="Landing-Desktop-F" transform="translate(-693.000000, -1597.000000)" fill="url(#linearGradient-1)">
            <g id="Group-10" transform="translate(663.000000, 1569.000000)">
                <path d="M54,30 L54,29.9981014 C54,28.8945804 54.8877296,28 56,28 C57.1045695,28 58,28.8867064 58,29.9981014 L58,30 L61.9982567,30 C64.2089408,30 66,31.7858958 66,33.9997073 L66,66.0002927 C66,68.2110546 64.2135275,70 61.9982567,70 L34.0017433,70 C31.7910592,70 30,68.2141042 30,66.0002927 L30,33.9997073 C30,31.7889454 31.7864725,30 34.0017433,30 L38,30 L38,29.9981014 C38,28.8945804 38.8877296,28 40,28 C41.1045695,28 42,28.8867064 42,29.9981014 L42,30 L46,30 L46,29.9981014 C46,28.8945804 46.8877296,28 48,28 C49.1045695,28 50,28.8867064 50,29.9981014 L50,30 L54,30 Z M54,33.9992249 C52.72968,33.9991172 51.3780453,33.9990103 50,33.9989132 L50,34.0018986 C50,35.1054196 49.1122704,36 48,36 C46.8954305,36 46,35.1132936 46,34.0018986 L46,33.9986683 C44.6219817,33.9985984 43.270349,33.9985469 42,33.9985228 L42,34.0018986 C42,35.1054196 41.1122704,36 40,36 C38.8954305,36 38,35.1132936 38,34.0018986 L38,33.9985633 C35.5846667,33.9986866 34,33.9990267 34,33.9997073 C34,33.9997073 33.9976172,66 34.0017433,66 C34.0017433,66 62,66.0031533 62,66.0002927 C62,66.0002927 62.0023828,34 61.9982567,34 C61.9982567,34 60.4143525,33.9998216 58,33.9995882 L58,34.0018986 C58,35.1054196 57.1122704,36 56,36 C54.8954305,36 54,35.1132936 54,34.0018986 L54,33.9992249 Z M48,45 C48,43.8954305 48.9019504,43 50.0085302,43 L57.9914698,43 C59.1007504,43 60,43.8877296 60,45 C60,46.1045695 59.0980496,47 57.9914698,47 L50.0085302,47 C48.8992496,47 48,46.1122704 48,45 Z M48,56 C48,54.8954305 48.9019504,54 50.0085302,54 L57.9914698,54 C59.1007504,54 60,54.8877296 60,56 C60,57.1045695 59.0980496,58 57.9914698,58 L50.0085302,58 C48.8992496,58 48,57.1122704 48,56 Z M38.5857864,46.4142136 L36.5857864,44.4142136 C35.8047379,43.633165 35.8047379,42.366835 36.5857864,41.5857864 C37.366835,40.8047379 38.633165,40.8047379 39.4142136,41.5857864 L40.0004257,42.1719986 L42.5857864,39.5857864 C43.366835,38.8047379 44.633165,38.8047379 45.4142136,39.5857864 C46.1952621,40.366835 46.1952621,41.633165 45.4142136,42.4142136 L41.4142136,46.4142136 C40.633165,47.1952621 39.366835,47.1952621 38.5857864,46.4142136 Z M38.5857864,57.4142136 L36.5857864,55.4142136 C35.8047379,54.633165 35.8047379,53.366835 36.5857864,52.5857864 C37.366835,51.8047379 38.633165,51.8047379 39.4142136,52.5857864 L40.0038742,53.1754471 L42.5857864,50.5857864 C43.366835,49.8047379 44.633165,49.8047379 45.4142136,50.5857864 C46.1952621,51.366835 46.1952621,52.633165 45.4142136,53.4142136 L41.4142136,57.4142136 C40.633165,58.1952621 39.366835,58.1952621 38.5857864,57.4142136 Z" id="Combined-Shape"></path>
            </g>
        </g>
    </g>
</svg>