<?xml version="1.0" encoding="UTF-8"?>
<svg width="110px" height="36px" viewBox="0 0 110 36" version="1.1" xmlns="http://www.w3.org/2000/svg" xmlns:xlink="http://www.w3.org/1999/xlink">
    <!-- Generator: Sketch 46.1 (44463) - http://www.bohemiancoding.com/sketch -->
    <title>google</title>
    <desc>Created with Sketch.</desc>
    <defs></defs>
    <g id="Page-1" stroke="none" stroke-width="1" fill="none" fill-rule="evenodd" opacity="0.2">
        <g id="Landing-Desktop-F" transform="translate(-956.000000, -1157.000000)" fill="#3A2568">
            <g id="logos" transform="translate(352.000000, 1156.000000)">
                <path d="M627.5934,4.78473467 C626.73863,5.64423703 625.911412,6.4760454 625.036533,7.35565886 C624.785901,7.16026247 624.504496,6.93387519 624.21598,6.71671925 C619.012259,2.79890069 610.714745,4.77231634 608.485721,11.7547152 C606.616537,17.6095736 610.042949,23.6560919 616.003121,24.8633075 C619.694831,25.6110449 623.031923,24.8109967 625.631228,21.9211521 C626.734519,20.6945947 627.201677,19.1865917 627.379096,17.4873684 L626.672528,17.4873684 C624.062557,17.4873684 621.452475,17.4763788 618.842727,17.497369 C618.36346,17.5012154 618.18604,17.3804389 618.208704,16.8848046 C618.247365,16.0443144 618.231701,15.2005273 618.213592,14.3586084 C618.205926,13.9994659 618.290804,13.8287963 618.702635,13.8300051 C622.663752,13.8417641 626.624979,13.8409948 630.586095,13.8308843 C630.951378,13.8298952 631.088248,13.9973779 631.118688,14.3105835 C631.621285,19.4767191 630.013286,24.5782354 624.430951,27.4063179 C622.556544,28.3560455 620.53327,28.6995827 618.429895,28.7294746 C614.936825,28.779038 611.8397,27.7247986 609.15074,25.5490631 C606.315689,23.2550787 604.58693,20.3134728 604.093887,16.6966614 C603.133687,9.65283028 607.997678,2.89264261 615.130243,1.43002698 C619.640172,0.505245966 623.710717,1.43892861 627.23245,4.45273664 C627.368987,4.56955687 627.497191,4.69593811 627.5934,4.78473467 M681.010601,14.4112709 C680.141833,14.3503881 679.322725,14.6156789 678.566607,15.0693326 C675.698339,16.7904253 675.051318,20.9755127 677.243791,23.5690756 C679.614684,26.3737502 683.823766,25.8554772 685.399325,22.5549486 C685.984466,21.3292703 686.117225,20.037654 685.873481,18.703178 C685.354887,15.8643255 683.108088,14.2739 681.010601,14.4112709 M672.886174,31.6160442 C673.933918,31.1851391 674.930446,30.7604981 675.944194,30.3814643 C676.042847,30.3446489 676.305033,30.5556506 676.395798,30.7075279 C677.109476,31.9007866 678.057678,32.8018299 679.430265,33.2085577 C682.644707,34.1609228 685.584077,32.0559608 685.657622,28.7504868 C685.668176,28.2754033 685.708504,27.801089 685.715836,27.3260054 C685.718836,27.1368731 685.669509,26.9468616 685.635736,26.6956377 C685.468093,26.7920172 685.361441,26.8282831 685.288451,26.8987269 C683.099533,29.0097332 680.507893,29.2150203 677.835376,28.1797931 C674.537834,26.9025733 672.644541,24.4084669 672.195048,20.9115528 C671.640458,16.5965675 674.428738,12.4249974 678.628154,11.2967975 C681.092812,10.6346697 683.350165,11.0023842 685.262788,12.7968879 C685.315559,12.8464513 685.377106,12.8885418 685.439986,12.9250275 C685.468648,12.941512 685.510532,12.9356875 685.658511,12.9533809 C685.679619,12.6598467 685.726613,12.3663125 685.715392,12.0750862 C685.700283,11.6823152 685.831376,11.514393 686.256095,11.5274707 C687.106532,11.5536262 687.958969,11.5534064 688.809407,11.5273608 C689.22646,11.5146128 689.351331,11.6586874 689.347443,12.064646 C689.329557,13.895086 689.339777,15.7258557 689.339666,17.5564056 C689.339555,20.9614459 689.358553,24.3665962 689.329668,27.7713069 C689.318225,29.1253446 689.133584,30.4699311 688.641985,31.7478104 C687.644235,34.3409337 685.780161,35.9770763 683.025432,36.532824 C679.945971,37.1541802 677.143805,36.6100814 674.807574,34.3963216 C673.987799,33.6195715 673.344555,32.7158907 672.886174,31.6160442 M636.766526,19.8806775 C636.826073,20.3332323 636.85318,20.7927105 636.950278,21.2372428 C637.740724,24.8591094 641.87315,26.5251439 644.819629,24.375344 C646.723031,22.9866889 647.294952,21.0308567 646.950777,18.7794023 C646.499729,15.8287849 643.688453,13.9236152 640.763637,14.5661814 C638.420074,15.0810476 636.802965,17.2496398 636.766526,19.8806775 M650.974996,19.8980412 C650.957665,24.9364767 646.99666,28.8338545 641.907478,28.8195679 C636.766637,28.8052814 632.828962,24.8666923 632.853514,19.7637474 C632.87751,14.7587204 636.859957,10.9275005 642.015241,10.9496997 C647.094424,10.9715691 650.992216,14.8643312 650.974996,19.8980412 M656.418695,19.8806775 C656.478243,20.3332323 656.50535,20.7927105 656.602448,21.2372428 C657.392893,24.8591094 661.525319,26.5251439 664.471799,24.375344 C666.375201,22.9866889 666.947122,21.0308567 666.602947,18.7794023 C666.151899,15.8287849 663.340623,13.9236152 660.415807,14.5661814 C658.072243,15.0810476 656.455135,17.2496398 656.418695,19.8806775 M670.627166,19.8980412 C670.609835,24.9364767 666.64883,28.8338545 661.559648,28.8195679 C656.418807,28.8052814 652.481131,24.8666923 652.505684,19.7637474 C652.52968,14.7587204 656.512127,10.9275005 661.667411,10.9496997 C666.746594,10.9715691 670.644386,14.8643312 670.627166,19.8980412 M701.288728,19.604551 C704.001907,18.4917367 706.665537,17.3991433 709.326945,16.3075391 C708.782687,14.863496 706.879063,14.0619092 705.084979,14.4685271 C702.750525,14.9974601 701.045984,17.250453 701.288728,19.604551 M701.899755,22.568356 C703.403768,25.9640552 708.453733,26.4066093 710.784965,22.876946 C711.775938,23.5301722 712.7668,24.1833984 713.794102,24.8605821 C712.871341,26.213301 711.704615,27.2344614 710.262593,27.9145024 C705.08709,30.3551989 698.469676,27.7003137 697.423043,21.2991586 C696.80013,17.4900279 698.605323,13.6299052 701.799102,11.9435398 C706.152608,9.6448298 711.04715,11.3139414 713.243845,15.8558635 C713.512364,16.4110618 713.724001,16.9932947 713.983854,17.6150904 C709.931528,19.2761795 705.930306,20.9161685 701.899755,22.568356 M695.542071,28.2427639 C694.375789,28.2427639 693.233725,28.2492478 692.092106,28.2304555 C692.00023,28.2289169 691.862138,28.0659401 691.832475,27.9551642 C691.786593,27.7833956 691.813145,27.5921753 691.813145,27.4090873 C691.812812,19.2445293 691.812367,11.0798613 691.813367,2.91530331 C691.813589,1.87853753 691.798925,2.08580277 692.685246,2.07525268 C693.625226,2.06415311 694.565429,2.07283495 695.542071,2.07283495 L695.542071,28.2427639 Z" id="google"></path>
            </g>
        </g>
    </g>
</svg>