<?xml version="1.0" encoding="UTF-8"?>
<svg width="100px" height="29px" viewBox="0 0 100 29" version="1.1" xmlns="http://www.w3.org/2000/svg" xmlns:xlink="http://www.w3.org/1999/xlink">
    <!-- Generator: Sketch 46.1 (44463) - http://www.bohemiancoding.com/sketch -->
    <title>slack</title>
    <desc>Created with Sketch.</desc>
    <defs></defs>
    <g id="Page-1" stroke="none" stroke-width="1" fill="none" fill-rule="evenodd" opacity="0.2">
        <g id="Landing-Desktop-F" transform="translate(-789.000000, -1160.000000)" fill="#3A2568">
            <g id="logos" transform="translate(352.000000, 1156.000000)">
                <path d="M448.772058,24.5448708 C448.985396,25.1675286 449.148381,25.6816514 449.337316,26.1863168 C449.688691,27.1250322 450.440062,27.5352136 451.244699,27.2445559 C452.012915,26.9671385 452.333695,26.2292805 452.067911,25.3231706 C451.908295,24.7790543 451.731652,24.2398919 451.537435,23.6178645 C452.190378,23.3909768 452.762738,23.1873272 453.338559,22.9933152 C453.945064,22.7889451 454.554756,22.5936721 455.224635,22.3743503 C455.40492,22.8737916 455.556797,23.2824417 455.700115,23.6941543 C456.130341,24.9297423 456.789111,25.4070263 457.667775,25.1149274 C458.57685,24.8127407 458.831253,24.0546167 458.439542,22.8357818 C458.297954,22.3954268 458.16966,21.9509285 458.022245,21.465178 C458.654336,21.2401817 459.206392,21.0646342 459.741512,20.8482847 C460.540412,20.5252916 460.953339,19.9573967 460.699027,19.0838923 C460.464383,18.2778508 459.711009,17.9204508 458.803481,18.1703066 C458.249878,18.322706 457.710296,18.5253647 457.076111,18.7345987 C456.657721,17.5127914 456.268833,16.3770016 455.863373,15.1929339 C456.524693,14.9581199 457.077841,14.7858149 457.611413,14.5666732 C458.483338,14.2085527 458.871771,13.4480869 458.536513,12.6967182 C458.178128,11.8933788 457.525732,11.6288416 456.67575,11.8870739 C456.127427,12.0537044 455.585843,12.2419519 454.970687,12.4436199 C454.768458,11.8819399 454.598371,11.4094297 454.428192,10.9369195 C454.044039,9.8706641 453.372521,9.43346157 452.529915,9.70106123 C451.63295,9.9860445 451.351595,10.7310182 451.709252,11.8729328 C451.85776,12.3470643 452.005449,12.8213759 452.175354,13.3654922 C451.062137,13.737934 450.028865,14.087678 448.991769,14.425983 C448.837434,14.4763325 448.66507,14.4725495 448.432612,14.5027231 C448.236028,13.9329367 448.0694,13.385668 447.859249,12.8552424 C447.510971,11.9763338 446.770162,11.5902914 445.998668,11.8541981 C445.229724,12.1172042 444.891461,12.8701941 445.148322,13.7652253 C445.312127,14.3358224 445.487495,14.9031769 445.67288,15.5229525 C445.006188,15.7501104 444.448305,15.9113367 443.914005,16.1290373 C443.104542,16.4588757 442.719205,17.2151983 443.018952,17.9299983 C443.354028,18.7290143 443.974191,19.05543 444.843567,18.8079161 C445.423303,18.6429068 445.998122,18.4609643 446.646421,18.2650608 C447.057981,19.4764198 447.435306,20.58708 447.84113,21.7816859 C447.14257,22.0278488 446.51412,22.1936687 445.93748,22.4664925 C445.202772,22.8139847 444.850487,23.4224114 445.158611,24.2242196 C445.452895,24.9901797 446.050659,25.3251521 446.87888,25.114387 C447.470452,24.963789 448.049369,24.7644628 448.772058,24.5448708 M465.774242,19.7566294 C465.921293,24.4805604 464.48329,27.0130745 461.624583,28.6836133 C457.842506,30.8935848 453.710602,32.1060247 449.330305,32.3330926 C445.966071,32.5074692 443.314146,31.1037194 441.591784,28.2207407 C439.338035,24.4482251 438.092336,20.3319101 437.870166,15.9645684 C437.691793,12.4594723 439.309262,9.83598694 442.376662,8.08393427 C444.989616,6.59146498 447.828473,5.69607347 450.75802,5.09395173 C452.058715,4.82662229 453.403297,4.68467107 454.732219,4.65161518 C457.915166,4.57244315 460.387989,5.94547887 462.030498,8.61444991 C464.393693,12.4545185 465.516288,16.6894564 465.774242,19.7566294 M454.334517,19.6472297 C453.049847,20.0720025 451.891104,20.4551627 450.594779,20.8837184 C450.186497,19.7001912 449.80462,18.5934941 449.373209,17.3430444 C450.629562,16.9152092 451.834014,16.505208 453.11058,16.0705275 C453.523324,17.2766624 453.90429,18.3899346 454.334517,19.6472297 M536.866523,25.609595 C536.009439,26.3161085 534.970067,26.5876712 533.911027,26.7901499 C533.436549,26.8808509 533.164846,26.5269637 532.914905,26.1994671 C532.156523,25.2052682 531.403695,24.2070161 530.64941,23.2097548 C529.995192,22.3447171 529.342614,21.4783283 528.687304,20.6140111 C528.598983,20.4974598 528.499279,20.389195 528.380455,20.2480544 C527.726784,20.8760264 527.089958,21.4717531 526.478535,22.091889 C526.383931,22.1878141 526.378195,22.3952466 526.377011,22.551429 C526.368816,23.6468672 526.374735,24.7424856 526.371639,25.8380139 C526.37,26.4057287 526.127434,26.6772915 525.558261,26.6930538 C524.830654,26.7132296 524.101591,26.7146707 523.374076,26.6935942 C522.797072,26.6769312 522.555872,26.4109528 522.55569,25.8410763 C522.554051,19.04264 522.557511,12.2442037 522.549225,5.44576736 C522.548588,4.92858217 522.687444,4.53974753 523.208541,4.35294118 L525.758031,4.35294118 C526.259279,4.51056467 526.38211,4.86553277 526.380289,5.35785849 C526.366267,9.07750269 526.37264,12.7971469 526.37264,16.5167911 C526.372732,16.6825209 526.372732,16.8481607 526.372732,17.1373773 C527.143406,16.4070851 527.799808,15.7858684 528.455392,15.1638411 C529.82292,13.8665547 531.186897,12.5657556 532.558614,11.2729728 C533.141536,10.7235423 533.499284,10.6675184 534.189468,11.0542814 C534.676056,11.326835 535.149988,11.6294721 535.596058,11.962553 C536.202381,12.4154278 536.213854,12.6702375 535.681739,13.1921964 C534.82074,14.0367881 533.936886,14.858682 533.078618,15.7059758 C532.417754,16.358447 531.781383,17.0351472 531.116331,17.7195034 C533.020709,20.1833837 534.94357,22.6713129 536.866523,25.1592421 L536.866523,25.609595 Z M488.972534,4.35294118 C489.434173,4.48858745 489.616735,4.80788761 489.595611,5.26760778 C489.588691,5.41721499 489.60244,5.56754277 489.60244,5.71751026 C489.602804,12.3507572 489.602895,18.983914 489.602622,25.6170708 C489.602531,26.4873326 489.387372,26.6991786 488.497418,26.7023311 C487.890639,26.7044928 487.283588,26.7120587 486.676991,26.6993587 C486.010391,26.6853978 485.769008,26.4403158 485.768917,25.7951403 C485.767734,19.0268777 485.770921,12.258615 485.762726,5.4903523 C485.762088,4.9646104 485.875905,4.54677304 486.423044,4.35294118 L488.972534,4.35294118 Z M498.547316,19.8324778 C497.585794,19.9209271 496.682728,20.0690031 495.906136,20.6402307 C495.273225,21.1057153 494.948256,21.726932 495.117342,22.5160403 C495.281419,23.2817302 495.8434,23.679752 496.574102,23.8208926 C497.981238,24.0928156 499.232765,23.7150597 500.359821,22.8595694 C501.066667,22.3230191 501.514558,21.6786542 501.318612,20.7559713 C501.286652,20.6056436 501.146248,20.3928969 501.017863,20.3614622 C500.200296,20.1613254 499.372076,20.0039722 498.547316,19.8324778 M501.355852,24.9840639 C500.427838,25.8881922 499.421427,26.4835587 498.232454,26.7120677 C496.284097,27.0866712 494.421968,26.877077 492.876431,25.5491666 C490.561403,23.5600482 490.996637,19.7821284 493.685894,18.1991381 C495.489385,17.1374764 497.454404,17.0627178 499.460033,17.3767939 C500.067358,17.4719084 500.65966,17.6612367 501.258425,17.8073312 C501.651411,15.5752925 500.495126,14.6235168 498.713033,14.3505129 C497.28368,14.1316414 495.977977,14.5175938 494.733825,15.1684437 C493.719402,15.6991395 493.581547,15.6825665 492.917678,14.7548397 C492.673109,14.4130219 492.446296,14.0549013 492.249712,13.684351 C491.964806,13.1472602 492.011334,12.8430919 492.556197,12.5568476 C493.448609,12.0879403 494.35732,11.6162407 495.312013,11.3035157 C497.215481,10.6799572 499.160377,10.6606821 501.082511,11.2739725 C503.684811,12.1043331 505.123088,14.0982252 505.151861,16.9741784 C505.181362,19.914442 505.160966,22.855156 505.156687,25.7956898 C505.155776,26.4260937 504.872692,26.6977465 504.238597,26.7017096 C503.571359,26.706033 502.903939,26.7076542 502.236701,26.7010791 C501.633383,26.6951344 501.354669,26.4058278 501.355761,25.8061379 C501.356217,25.5671807 501.355852,25.3282235 501.355852,24.9840639 M478.149421,26.888579 C475.812631,26.812019 473.845426,26.3077139 471.983388,25.4012437 C471.378704,25.1068931 471.267346,24.8136233 471.535224,24.1958293 C471.731808,23.7424141 471.963083,23.3002577 472.217122,22.8754849 C472.553837,22.312724 472.804506,22.2573306 473.434594,22.4649432 C474.410958,22.7867654 475.383133,23.1325463 476.379802,23.3783489 C476.973377,23.5248036 477.611114,23.5457 478.227362,23.5344412 C478.608147,23.5275958 479.012696,23.4098736 479.359518,23.2448643 C480.239183,22.8263964 480.327687,21.868496 479.502745,21.3555441 C478.947411,21.0102135 478.302754,20.7923328 477.678402,20.5721103 C476.836524,20.2751476 475.971428,20.0431258 475.124815,19.7581426 C474.739023,19.6282608 474.36443,19.4564962 474.000854,19.2726622 C472.457775,18.4921107 471.533221,17.3057912 471.573285,15.524916 C471.614805,13.6790098 472.527158,12.3627185 474.175676,11.56046 C475.925628,10.7088428 477.786756,10.668311 479.64588,11.0679541 C480.765197,11.3086227 481.857745,11.689441 482.941733,12.0652155 C483.583567,12.2876898 483.706034,12.6140154 483.441433,13.2311789 C483.217534,13.7535882 482.944556,14.2598749 482.646903,14.7454453 C482.351526,15.2273228 482.08383,15.2664135 481.521667,15.0904156 C480.627343,14.8104763 479.734657,14.5105413 478.820756,14.3112151 C478.014571,14.1353974 477.188354,14.1805227 476.411579,14.5256731 C475.991095,14.7124795 475.648007,14.9772869 475.620327,15.4792502 C475.593193,15.9707653 475.856155,16.3304171 476.2699,16.5324454 C476.824141,16.8030173 477.404423,17.0276533 477.987801,17.2322036 C479.086996,17.6175255 480.233902,17.8914301 481.294217,18.3595268 C483.847622,19.48685 484.734298,22.1989649 483.335356,24.4606368 C482.528716,25.7645884 481.248053,26.3878767 479.788287,26.6813266 C479.167396,26.8060744 478.528293,26.8425529 478.149421,26.888579 M506.983988,18.8262365 C506.988905,16.3795596 507.769959,14.2573169 509.732338,12.6709941 C511.196292,11.4876469 512.924573,10.986134 514.78397,10.8694026 C516.634445,10.7533016 518.369555,11.1557369 519.990484,12.0374377 C520.663823,12.4036646 520.762251,12.6896387 520.394578,13.3518375 C520.110856,13.8628979 519.780697,14.3522513 519.434149,14.8246714 C519.091425,15.2917773 518.843851,15.3131241 518.289519,15.0933519 C517.714609,14.8653833 517.139153,14.6073311 516.538475,14.4793408 C513.016628,13.7288729 510.33511,16.3965829 511.049332,19.913118 C511.574254,22.497783 513.849582,23.9725084 516.488942,23.3849781 C517.190143,23.2288858 517.867487,22.9366968 518.529171,22.6475703 C519.13859,22.3813217 519.364584,22.3799707 519.781881,22.9076941 C520.070611,23.2728402 520.337215,23.6597834 520.571221,24.0612279 C520.961202,24.730272 520.87798,25.0286758 520.228679,25.4444416 C519.19559,26.1058297 518.067622,26.5518592 516.85534,26.7299287 C514.134579,27.1294817 511.618323,26.6492255 509.491958,24.8226844 C507.854548,23.4160524 507.127124,21.5613193 506.9859,19.4557396 C506.971878,19.2467759 506.983988,19.0361009 506.983988,18.8262365" id="slack"></path>
            </g>
        </g>
    </g>
</svg>