<?xml version="1.0" encoding="UTF-8"?>
<svg width="28px" height="25px" viewBox="0 0 28 25" version="1.1" xmlns="http://www.w3.org/2000/svg" xmlns:xlink="http://www.w3.org/1999/xlink">
    <!-- Generator: Sketch 46.2 (44496) - http://www.bohemiancoding.com/sketch -->
    <title>Combined Shape</title>
    <desc>Created with Sketch.</desc>
    <defs></defs>
    <g id="Page-1" stroke="none" stroke-width="1" fill="none" fill-rule="evenodd">
        <path d="M3.7502035,11.6388647 C4.30408089,13.8843247 5.70272418,15.9809871 8.11439703,17.5993795 C9.01499932,18.2037433 8.90759547,19.5522505 7.92251055,20.0086069 C7.55348515,20.1795638 5.43439685,20.7874087 4.86750046,20.921126 C4.67556227,20.9663996 4.27298023,21.0590514 4.27298023,21.0590514 C5.57997034,21.8232504 7.41187499,22.2222329 9.80691561,22.2222329 C17.4915408,22.2222329 23.0989228,16.6188751 23.1046538,8.23242572 C23.1047528,8.08759775 23.0981636,7.67824387 23.0981636,7.6389556 C23.0981636,4.75099578 21.5723661,2.76406726 18.9082155,2.77784432 C16.2250703,2.79171961 14.7036912,4.76436561 14.7036912,7.6389556 C14.7036912,7.80584149 14.6992508,8.84243753 14.6992508,9.01096978 C14.6992508,9.84397582 13.9657162,10.4896109 13.1326336,10.3898592 C9.62361653,9.9696961 6.43768243,8.44063621 3.97943709,6.07152628 L3.94256087,6.17966457 C3.77878461,6.72718056 3.65623541,7.28121779 3.57726113,7.83717896 C3.62296966,7.89108706 3.67649614,7.95215562 3.73786806,8.01941203 C4.07494825,8.38881231 4.49058029,8.76264835 4.98530023,9.11332762 C5.36491623,9.38241615 5.77595107,9.62636336 6.21895178,9.8391084 C6.91452553,10.1731482 7.20561893,11.0037059 6.86912708,11.694211 C6.53263523,12.384716 5.69598076,12.6736882 5.00040701,12.3396484 C4.56048342,12.1283811 4.1438364,11.8936817 3.7502035,11.6388647 Z M24.5757751,2.89537109 L24.9574248,2.87503053 C25.4068492,2.85107782 25.8512161,2.97941061 26.2186735,3.23927813 C27.1205091,3.87706039 27.3345667,5.12516732 26.6967845,6.02700299 L25.8860026,7.17346325 C25.8928691,7.32733389 25.8963211,7.48253831 25.8963211,7.6389556 C25.8963211,7.70374362 25.9029373,8.04905525 25.9028107,8.23431013 C25.8960348,18.1496378 19.0407529,25 9.80691561,25 C5.24683078,25 2.30073584,23.8173519 0.270484539,21.057751 C-0.335190717,20.2344923 0.129197509,19.0655743 1.13790155,18.8743636 C1.18417093,18.8655927 1.27334565,18.8484133 1.3992473,18.8237143 C1.61038255,18.7822944 3.54793991,18.3772756 4.22064618,18.2186002 C4.28571205,18.2032528 4.4133467,18.1727625 4.4133467,18.1727625 L4.34167023,18.104637 C0.00215950924,13.799252 -0.244313232,7.81128965 2.27846172,2.85292207 C2.74395037,1.93803117 4.01316937,1.82170866 4.63952044,2.63653368 C6.45304948,4.99576779 9.00123291,6.6508814 11.9139591,7.35311549 L11.9117095,7.27916365 C12.0530064,3.18410455 14.6121223,0.022255822 18.8936394,0.00011490833 C21.4473795,-0.0130911907 23.3914745,1.11294207 24.5757751,2.89537109 Z" id="Combined-Shape" fill="#999999"></path>
    </g>
</svg>