<?xml version="1.0" encoding="UTF-8"?>
<svg width="121px" height="25px" viewBox="0 0 121 25" version="1.1" xmlns="http://www.w3.org/2000/svg" xmlns:xlink="http://www.w3.org/1999/xlink">
    <!-- Generator: Sketch 46.1 (44463) - http://www.bohemiancoding.com/sketch -->
    <title>logo</title>
    <desc>Created with Sketch.</desc>
    <defs></defs>
    <g id="Page-1" stroke="none" stroke-width="1" fill="none" fill-rule="evenodd" opacity="0.2">
        <g id="Landing-Desktop-F" transform="translate(-352.000000, -1162.000000)" fill="#3A2568">
            <g id="logos" transform="translate(352.000000, 1156.000000)">
                <path d="M62.0545513,22.9350628 L62.0545513,26.4477579 C62.0545513,26.4600473 62.0558236,26.4724847 62.054701,26.4847001 C62.0283572,26.7807561 62.1517687,26.9068335 62.4644511,26.8998745 C63.1487898,26.8848459 63.8352241,26.9257118 64.5179164,26.8893619 C66.0097808,26.809999 66.7789884,26.0920316 66.809149,24.7107328 C66.841929,23.2077986 66.8394592,21.7033837 66.8122174,20.2003014 C66.791337,19.0455422 66.0438331,18.3815445 64.8803674,18.3442321 C64.0228485,18.316766 63.2382239,18.5344216 62.4595116,18.8544642 C62.1553611,18.9795052 62.0448221,19.1417844 62.0486389,19.459384 C62.0625592,20.6178449 62.0541771,21.7765279 62.0545513,22.9350628 M62.0353174,7.01584969 C62.0353174,7.17990575 62.0359161,7.32515756 62.0351677,7.47040937 C62.0246901,9.69094082 62.0127905,11.9114723 62.0039593,14.1320037 C62.0008909,14.9049773 62.0006664,14.8914293 62.7424076,14.6956133 C64.5027238,14.2309112 66.2887102,14.1392589 68.0783639,14.4692959 C70.3048597,14.8798803 71.4855386,16.08587 71.6358177,18.3169141 C71.7721766,20.3419997 71.7411179,22.380189 71.7245782,24.4120856 C71.7178426,25.2435449 71.633797,26.0913653 71.447445,26.9008369 C71.0167396,28.7717128 69.7274676,29.8646549 67.9247918,30.4161231 C66.1126113,30.9704786 64.2407083,31.0192661 62.3772622,30.9028869 C60.72045,30.7994635 59.074265,30.5329464 57.4220929,30.3497159 C57.194878,30.3245449 57.1158468,30.2308937 57.1299167,30.0206414 C57.1373259,29.9101108 57.1305903,29.7986179 57.1305903,29.6875691 C57.1305903,22.8767992 57.1308148,16.0660293 57.1299167,9.25525943 C57.1298419,8.86051803 57.1248276,8.46570259 57.1125538,8.07125731 C57.1061176,7.8654469 57.1790119,7.75454619 57.3971711,7.71938074 C58.8849193,7.4798115 60.3713205,7.23239481 61.8583952,6.98927201 C61.8923726,6.98371957 61.9299424,6.99919237 62.0353174,7.01584969 M48.0855913,20.7675682 L48.0855913,20.787631 C48.5210864,20.787631 48.9565815,20.7879272 49.3920766,20.787557 C50.3576648,20.7865946 50.3816885,20.7709737 50.2955475,19.8145476 C50.2029701,18.7862359 49.7680738,18.1212758 48.6394836,17.9519634 C48.0495183,17.8634945 47.4738475,17.8985119 46.9233979,18.1409684 C46.4903725,18.3317502 46.1693829,18.6561607 46.0625111,19.1041315 C45.9583336,19.5405532 45.9447875,19.9994808 45.9091636,20.4498947 C45.8912019,20.6773966 46.0232949,20.7734908 46.2572453,20.7703074 C46.8665942,20.7620898 47.4761676,20.7675682 48.0855913,20.7675682 M54.7575199,26.4361644 C54.7655278,26.5106411 54.7843876,26.6056988 54.7845373,26.7007566 C54.7866328,27.7865176 54.7778016,28.8723526 54.7915722,29.9578914 C54.7948652,30.2183378 54.7049073,30.330275 54.4521719,30.382542 C52.0971755,30.8693058 49.723469,31.058681 47.3196019,30.8867034 C46.1588305,30.803713 45.0464806,30.5526687 44.0266333,30.0017187 C42.340783,29.0910446 41.451457,27.616761 41.1375024,25.7837898 C41.0380397,25.2033748 40.9914891,24.607265 40.9914891,24.0183363 C40.991564,22.526729 40.9828077,21.0323826 41.0668532,19.5441068 C41.2091993,17.0221889 42.8960973,15.1168139 45.3852074,14.5789677 C47.2648189,14.1727512 49.146002,14.1551315 51.0157347,14.6317529 C53.5841754,15.2865705 54.9358641,17.063203 55.1386811,19.5882302 C55.2460767,20.9248133 55.1782715,22.2746483 55.2092554,23.6181164 C55.2165897,23.9377148 55.0978932,24.0054546 54.7988317,24.0044181 C52.0175455,23.9946458 49.2361845,23.9983475 46.4548234,23.9988657 C45.8905284,23.9990138 45.8572993,24.0235926 45.8765332,24.5853513 C45.8861128,24.866971 45.9188928,25.1522184 45.9814592,25.426953 C46.1615996,26.2178425 46.6653489,26.7362922 47.5001165,26.7873747 C48.7014513,26.861037 49.9125902,26.8787308 51.1142992,26.8179501 C52.324091,26.7567252 53.5275213,26.5703113 54.7575199,26.4361644 M83.1155255,22.65693 L83.1019794,22.65693 C83.1019794,21.830653 83.1235334,21.0036357 83.0956928,20.1783212 C83.0695736,19.4057918 82.6847453,18.8070908 81.9403099,18.5695205 C81.4331927,18.4076854 80.8671763,18.3503842 80.3314702,18.3674857 C79.1608198,18.4050202 78.3652685,19.2216729 78.3501508,20.3606633 C78.330393,21.8528628 78.3338357,23.3455805 78.3496269,24.8378541 C78.3595807,25.773329 78.8608603,26.4708634 79.6930085,26.7211674 C80.3072219,26.9058785 80.9395468,26.9340849 81.5678302,26.7746929 C82.5782477,26.5183183 83.0819971,25.9103632 83.1114092,24.8769432 C83.1325142,24.1375064 83.1155255,23.3969591 83.1155255,22.65693 M73.3599562,22.6707001 C73.4249924,21.5208269 73.4159367,20.4423212 73.559555,19.3841003 C73.910331,16.7993288 75.4301109,15.2020032 77.9827603,14.6069297 C80.0455806,14.1260145 82.1179805,14.138452 84.1496673,14.7817946 C86.3334294,15.4733323 87.5963577,17.0186132 87.9157008,19.2183415 C88.2349691,21.4176996 88.1816828,23.64482 87.9388264,25.8543946 C87.8084548,27.0409138 87.3282801,28.1130528 86.4884234,28.9942619 C85.5434911,29.9857795 84.3329509,30.483204 83.0048368,30.6996751 C82.2482024,30.8230133 81.4749535,30.9159241 80.7104609,30.9077805 C79.3660316,30.8935663 78.0308077,30.7474261 76.7782822,30.1969943 C74.9063792,29.3744189 73.8830144,27.8976182 73.5856743,25.9474535 C73.4175083,24.8442949 73.4262646,23.7147067 73.3599562,22.6707001 M99.4272006,22.5912558 C99.4379776,22.5912558 99.4487546,22.5911817 99.4596064,22.5911817 C99.4596064,21.8879468 99.4764455,21.1841196 99.4552657,20.481477 C99.4288471,19.6049319 99.100598,18.8974771 98.2218244,18.544342 C97.613224,18.2996645 96.9759597,18.2743454 96.3491731,18.4072338 C95.2838229,18.6332551 94.721773,19.142969 94.6764198,20.2070384 C94.6041242,21.9041599 94.6469328,23.6091289 94.7189291,25.307583 C94.7467696,25.9638813 95.2264204,26.4239934 95.8505877,26.6652654 C96.4790208,26.9082402 97.1395604,26.9290433 97.793065,26.794156 C98.8062515,26.5850142 99.3464481,26.0125207 99.4161991,24.9950917 C99.4709821,24.1972432 99.4272006,23.3928059 99.4272006,22.5912558 M89.6779928,22.5128553 C89.7386134,21.4525615 89.7041121,20.2938785 89.8897157,19.1708052 C90.2976696,16.7028571 91.8141565,15.1799341 94.2683911,14.6055157 C96.2432742,14.1432567 98.2306556,14.1474765 100.18623,14.6979083 C102.533892,15.3586486 103.868817,16.9419081 104.232615,19.3126515 C104.33305,19.9667288 104.34495,20.6381298 104.348393,21.3017573 C104.355353,22.6455216 104.386411,23.9931356 104.30042,25.3323839 C104.205822,26.8069637 103.69848,28.1502838 102.574979,29.1900705 C101.695906,30.0036139 100.629284,30.4620973 99.4557147,30.6761994 C97.522817,31.0288903 95.599424,31.0237821 93.7120291,30.4213794 C91.4585908,29.7022275 90.1922946,28.1240022 89.863372,25.8435785 C89.7094257,24.7758814 89.7371166,23.6824951 89.6779928,22.5128553 M18.4734587,24.8638543 L18.471438,24.8301695 C17.9265265,24.8645206 17.3789208,24.876884 16.837452,24.9404779 C16.4244838,24.9889692 16.1388936,25.2285385 16.0308992,25.6496355 C15.7716528,26.6610678 16.3791307,27.4603969 17.426594,27.4825326 C18.2600145,27.5001524 19.0074435,27.2044665 19.7320463,26.8465933 C19.8333051,26.7965473 19.9168267,26.6156118 19.923263,26.4910151 C19.945266,26.0610342 19.9250591,25.6290544 19.9299986,25.197963 C19.9326928,24.9650567 19.8299372,24.8594123 19.5942655,24.8625217 C19.2207381,24.8674819 18.847061,24.8638543 18.4734587,24.8638543 L18.4734587,24.8638543 Z M20.7837755,30.7459602 C20.7466548,30.5304515 20.7099831,30.3262698 20.6766044,30.1215699 C20.6201,29.7749497 20.5257266,29.7152794 20.2068325,29.8770405 C19.3285828,30.3224942 18.4086471,30.6533455 17.4346019,30.8009664 C16.0749053,31.0069248 14.7123646,31.0893971 13.4254126,30.4615273 C12.0044218,29.7681387 11.3498695,28.5497114 11.0992297,27.0635086 C10.9580811,26.2264228 11.0042575,25.3940012 11.1994407,24.57646 C11.5799282,22.9830581 12.681052,22.1296112 14.2431166,21.8015731 C14.6879667,21.708144 15.1486081,21.6612814 15.6036365,21.6472893 C16.9345946,21.6063493 18.266301,21.5857683 19.5978578,21.5742192 C19.8652618,21.5719242 19.9529745,21.480494 19.9358361,21.2295238 C19.904029,20.7642294 19.8977425,20.2970842 19.8582268,19.8326041 C19.8126492,19.2969788 19.505954,18.9347377 18.9934484,18.7927433 C18.591332,18.6813244 18.1691585,18.5902644 17.7543193,18.5835274 C16.2456157,18.5590227 14.7363135,18.5738292 13.2272358,18.5738292 L12.7484831,18.5738292 C12.8876858,17.202969 13.0223233,15.8765283 13.1602538,14.5172912 C13.3576074,14.5172912 13.5052671,14.5171431 13.652852,14.5172912 C15.473714,14.519216 17.2953243,14.4913058 19.1151385,14.5343187 C20.1946335,14.5598599 21.2670187,14.7215469 22.2796814,15.136129 C23.7169125,15.7245395 24.4675597,16.854794 24.6824259,18.3167142 C24.8371954,19.3696047 24.8975914,20.4430763 24.9082936,21.5082562 C24.9375561,24.4318745 24.9183222,27.3560111 24.9183222,30.2799255 L24.9183222,30.7459602 L20.7837755,30.7459602 Z M110.929592,6.98161705 L110.929592,21.5454427 C110.966863,21.5683928 111.004133,21.5914169 111.041329,21.614367 C111.14371,21.5218264 111.271462,21.4456469 111.344357,21.334228 C111.959768,20.3928304 112.565524,19.4452141 113.173526,18.4990045 C113.968778,17.2614028 114.767697,16.0260962 115.554342,14.7830901 C115.690626,14.5677295 115.854227,14.48696 116.104418,14.4879225 C117.663339,14.4941412 119.222335,14.4899213 120.781331,14.4907357 C120.839856,14.4907357 120.898456,14.5071709 121.025834,14.5261973 C120.812914,14.8700783 120.626262,15.1802746 120.431154,15.4851405 C119.045413,17.6505918 117.664686,19.8192264 116.263378,21.9748314 C116.063929,22.2815481 116.066923,22.5119373 116.251329,22.8108066 C117.147017,24.2621402 118.027586,25.7225797 118.912646,27.1802801 C119.547591,28.2260635 120.182535,29.2719209 120.813438,30.3201474 C120.874058,30.4208316 120.905641,30.5386173 120.970527,30.6968248 C120.801688,30.7105208 120.683216,30.7283627 120.564744,30.7285107 C119.093011,30.7303616 117.621279,30.7210335 116.149696,30.7367284 C115.842477,30.7399858 115.671841,30.6234586 115.522685,30.3769303 C114.199286,28.1891953 112.868178,26.0060502 111.538268,23.8221649 C111.448684,23.6749882 111.359325,23.5261088 111.252827,23.3911475 C111.205828,23.3316254 111.116169,23.3051217 111.045819,23.2635895 C111.007351,23.3327359 110.946282,23.3986989 110.935505,23.471843 C110.917768,23.592442 110.933409,23.717779 110.933484,23.8411912 C110.934307,25.9755488 110.935355,28.1099064 110.935056,30.244264 C110.934981,30.7274743 110.932661,30.729103 110.427714,30.7294732 C109.143157,30.7303616 107.858525,30.7302135 106.573893,30.7295472 C106.017157,30.7293251 106.012592,30.7265859 106.012442,30.1688989 C106.011394,26.0235219 106.011544,21.8781449 106.011394,17.7327679 C106.011244,14.5867559 106.01117,11.4406699 106.011394,8.29465785 C106.011469,7.78020586 106.035418,7.76969324 106.538269,7.68914586 C107.927528,7.4666041 109.31484,7.23162487 110.703051,7.00227212 C110.750724,6.99435064 110.799595,6.99316612 110.929592,6.98161705 M11.2979079,14.5398933 C11.2423017,15.099209 11.1920839,15.622767 11.1377499,16.1458808 C11.0691215,16.806621 10.9833546,17.4660287 10.9327626,18.1280275 C10.909188,18.4362989 10.8005948,18.5606736 10.4752645,18.5533444 C9.67761769,18.5352804 8.87914764,18.5473477 8.08105179,18.5474958 C7.47836369,18.5476439 7.47746561,18.5477919 7.47821401,19.128355 C7.4828541,22.8044398 7.48801807,26.4805247 7.49258333,30.1566095 C7.49325689,30.7305096 7.49220912,30.7308058 6.89812765,30.7308058 C5.60114705,30.7310279 4.30401677,30.7201451 3.00733554,30.7379869 C2.65985251,30.742725 2.56547902,30.6308618 2.56645194,30.2951984 C2.57685473,26.5820232 2.57318756,22.8687741 2.57281336,19.1555989 C2.57273852,18.5617841 2.57154108,18.5614139 1.97379243,18.5606736 C1.43756243,18.5600073 0.901107902,18.5515676 0.365102418,18.5637829 C0.103535933,18.5697055 0.0129792958,18.4648755 0.0145509399,18.2139793 C0.0215859184,17.0914242 0.0233072429,15.968795 0.0140270586,14.8462399 C0.0119315331,14.5888288 0.107876664,14.4951036 0.363830135,14.5000638 C0.924757404,14.5109466 1.48613371,14.5033212 2.0472855,14.5048019 C2.54175468,14.5061345 2.57049331,14.4814076 2.57199012,13.9788749 C2.57460952,13.0906327 2.54684381,12.2015021 2.57984834,11.3145184 C2.61966332,10.243638 2.83303272,9.20696061 3.47433836,8.30968645 C4.16384109,7.34496866 5.16101186,6.80060753 6.30531846,6.69518522 C7.87636385,6.55037761 9.46275148,6.56451782 11.0429274,6.52942641 C11.1250271,6.52757559 11.2830896,6.70162605 11.2844367,6.79542526 C11.3012009,7.95477454 11.290873,9.11449399 11.2988809,10.2740654 C11.300677,10.5330311 11.1686589,10.5761921 10.9490778,10.5790053 C10.2143716,10.5881854 9.47899181,10.594108 8.74540821,10.6314944 C7.94267226,10.6724344 7.52117228,11.1079677 7.4981215,11.9067786 C7.47746561,12.6217847 7.49647502,13.3378272 7.47305003,14.0526853 C7.46159948,14.4032293 7.58149348,14.5327121 7.94551619,14.5253829 C8.91784002,14.5058383 9.89083741,14.5179056 10.8636103,14.5194603 C10.9968258,14.5196824 11.1301162,14.5316757 11.2979079,14.5398933 M39.2916737,18.8121621 C38.4291404,18.6834935 37.6324665,18.5545289 36.8327242,18.4476999 C35.7192518,18.2989686 34.5997173,18.2323393 33.4827274,18.3901026 C32.2800454,18.5599333 31.7332629,19.0456606 31.6859639,20.2334384 C31.6203291,21.8816985 31.6473464,23.5375098 31.7245066,25.185918 C31.7699346,26.1576688 32.3762899,26.6769329 33.3554242,26.8110799 C34.6620592,26.9900905 35.9622579,26.8971057 37.2584153,26.7049913 C37.9179819,26.6071943 38.5753033,26.4942947 39.2597169,26.3839863 C39.2724398,26.5010317 39.2914492,26.5954972 39.2918234,26.6899627 C39.2962389,27.7877169 39.292946,28.8854711 39.3042468,29.9831513 C39.3065669,30.2149471 39.2477425,30.3451703 38.9971027,30.3961788 C37.1486995,30.7725601 35.2900433,31.0504782 33.3956134,30.9244748 C31.8867602,30.8241608 30.4517743,30.5005646 29.183682,29.604549 C27.9792039,28.7536192 27.3092344,27.5835352 26.9973005,26.1986088 C26.8549544,25.5665932 26.7893944,24.9088883 26.770385,24.2605114 C26.7353598,23.0651083 26.7360334,21.8672621 26.7669424,20.6716369 C26.8018927,19.3205434 27.1056691,18.0294162 27.9047379,16.9045661 C28.8493708,15.575016 30.1917794,14.8523105 31.7749489,14.5296768 C33.6975936,14.1378227 35.6179182,14.2624194 37.5352491,14.5723195 C38.0148251,14.6498316 38.4941766,14.7357093 38.9657446,14.8495713 C39.0894555,14.8794805 39.2759573,15.0269533 39.2776786,15.1231215 C39.299008,16.3294074 39.2916737,17.5362115 39.2916737,18.8121621" id="logo"></path>
            </g>
        </g>
    </g>
</svg>