<?xml version="1.0" encoding="UTF-8"?>
<svg width="28px" height="28px" viewBox="0 0 28 28" version="1.1" xmlns="http://www.w3.org/2000/svg" xmlns:xlink="http://www.w3.org/1999/xlink">
    <!-- Generator: Sketch 46.2 (44496) - http://www.bohemiancoding.com/sketch -->
    <title>Combined Shape</title>
    <desc>Created with Sketch.</desc>
    <defs></defs>
    <g id="Page-1" stroke="none" stroke-width="1" fill="none" fill-rule="evenodd">
        <path d="M16.8,25.2 L23.806875,25.2 C24.5767688,25.2 25.2,24.5766374 25.2,23.806875 L25.2,4.19312501 C25.2,3.42323119 24.5766374,2.8 23.806875,2.8 L4.19312501,2.8 C3.42323119,2.8 2.8,3.42336265 2.8,4.19312501 L2.8,23.806875 C2.8,24.5767688 3.42336265,25.2 4.19312501,25.2 L14,25.2 C14,25.0317087 14,24.8367287 14,24.6092592 C14,22.6185184 14,22.6185184 14,20.2296294 C14,18.3422013 14,18.1569935 14,16.8 L12.5993164,16.8 C11.8261178,16.8 11.1993164,16.1731986 11.1993164,15.4 C11.1993164,14.6268014 11.8261178,14 12.5993164,14 L14,14 C14,11.3444642 14.2998306,9.67081866 15.5454172,8.27672335 C16.7770742,6.89821844 18.2163701,6.3 19.6,6.3 C20.3731986,6.3 21,6.92680135 21,7.7 C21,8.47319865 20.3731986,9.1 19.6,9.1 C18.9880342,9.1 18.3145541,9.37992037 17.6334036,10.142283 C17.01347,10.83613 16.8,12.0277131 16.8,14 L19.6,14 C20.3731986,14 21,14.6268014 21,15.4 C21,16.1731986 20.3731986,16.8 19.6,16.8 L16.8,16.8 C16.8,18.1569935 16.8,18.3422013 16.8,20.2296294 C16.8,22.6185184 16.8,22.6185184 16.8,24.6092592 C16.8,24.8367287 16.8,25.0317087 16.8,25.2 Z M0,23.806875 L0,4.19312501 C0,1.87709753 1.87670168,0 4.19312501,0 L23.806875,0 C26.1229025,0 28,1.87670168 28,4.19312501 L28,23.806875 C28,26.1229025 26.1232983,28 23.806875,28 L4.19312501,28 C1.87709753,28 0,26.1232983 0,23.806875 Z" id="Combined-Shape" fill="#999999"></path>
    </g>
</svg>