<?xml version="1.0" encoding="UTF-8"?>
<svg width="28px" height="28px" viewBox="0 0 28 28" version="1.1" xmlns="http://www.w3.org/2000/svg" xmlns:xlink="http://www.w3.org/1999/xlink">
    <!-- Generator: Sketch 46.2 (44496) - http://www.bohemiancoding.com/sketch -->
    <title>Combined Shape</title>
    <desc>Created with Sketch.</desc>
    <defs></defs>
    <g id="Page-1" stroke="none" stroke-width="1" fill="none" fill-rule="evenodd">
        <path d="M6.99335474,0 L21.0066453,0 C24.8689684,0 28,3.13045315 28,6.99335474 L28,21.0066453 C28,24.8689684 24.8695469,28 21.0066453,28 L6.99335474,28 C3.13103157,28 0,24.8695469 0,21.0066453 L0,6.99335474 C0,3.13103157 3.13045315,0 6.99335474,0 Z M2.8,21.0066453 C2.8,23.322914 4.67719327,25.2 6.99335474,25.2 L21.0066453,25.2 C23.322914,25.2 25.2,23.3228067 25.2,21.0066453 L25.2,6.99335474 C25.2,4.67708603 23.3228067,2.8 21.0066453,2.8 L6.99335474,2.8 C4.67708603,2.8 2.8,4.67719327 2.8,6.99335474 L2.8,21.0066453 Z M7,14 C7,10.1340068 10.1340068,7 14,7 C17.8659932,7 21,10.1340068 21,14 C21,17.8659932 17.8659932,21 14,21 C10.1340068,21 7,17.8659932 7,14 Z M18.2,14 C18.2,11.6804041 16.3195959,9.8 14,9.8 C11.6804041,9.8 9.8,11.6804041 9.8,14 C9.8,16.3195959 11.6804041,18.2 14,18.2 C16.3195959,18.2 18.2,16.3195959 18.2,14 Z M21,8.4 C20.2268014,8.4 19.6,7.77319865 19.6,7 C19.6,6.22680135 20.2268014,5.6 21,5.6 C21.7731986,5.6 22.4,6.22680135 22.4,7 C22.4,7.77319865 21.7731986,8.4 21,8.4 Z" id="Combined-Shape" fill="#999999"></path>
    </g>
</svg>