<?xml version="1.0" encoding="UTF-8"?>
<svg width="35px" height="35px" viewBox="0 0 35 35" version="1.1" xmlns="http://www.w3.org/2000/svg" xmlns:xlink="http://www.w3.org/1999/xlink">
    <!-- Generator: Sketch 46.2 (44496) - http://www.bohemiancoding.com/sketch -->
    <title>Combined Shape</title>
    <desc>Created with Sketch.</desc>
    <defs>
        <linearGradient x1="99.1118421%" y1="100.888158%" x2="-0.888157895%" y2="-0.888157895%" id="linearGradient-1">
            <stop stop-color="#1638DC" offset="0%"></stop>
            <stop stop-color="#1650DC" offset="100%"></stop>
        </linearGradient>
    </defs>
    <g id="Page-1" stroke="none" stroke-width="1" fill="none" fill-rule="evenodd">
        <g id="Landing-Desktop-F" transform="translate(-694.000000, -1694.000000)" fill="url(#linearGradient-1)">
            <g id="Group-10" transform="translate(663.000000, 1662.000000)">
                <path d="M41.7647996,52.7902023 C41.2972712,52.9659076 40.831531,53.1543182 40.3689189,53.3540668 C39.2930605,53.8186055 38.2960781,54.3168793 37.4086518,54.8124248 C36.8914776,55.1012188 36.5389661,55.3160652 36.4141964,55.3974212 C35.9951681,55.6787062 35.5236795,56.2141001 35.1646145,56.8495176 C34.8353497,57.4321996 34.6641221,57.9897938 34.6641221,58.2735146 L34.6641221,60.6340556 C35.2732451,61.0057828 36.1840679,61.4171158 37.301605,61.7999141 C40.3840811,62.8557778 44.3915459,63.5062812 48.5877858,63.5062807 C52.7856502,63.5062802 56.7937401,62.8566556 59.8747433,61.8021082 C60.9924398,61.4195497 61.9029649,61.0084402 62.5114504,60.6369163 L62.5114504,58.2735146 C62.5114504,58.004689 62.3398284,57.4538268 62.0069388,56.8672286 C61.6521066,56.2419642 61.1869994,55.7013224 60.7673629,55.3961198 C60.5902,55.2830432 60.2549016,55.0809282 59.7835707,54.8176128 C58.8951385,54.3212782 57.8982199,53.8222898 56.8239224,53.3571695 C56.3561891,53.1546629 55.885451,52.9637868 55.4131298,52.785973 C53.9310268,55.445909 51.7398878,57.4198468 48.5877863,57.4198473 C45.4373551,57.4198478 43.2468684,55.4480017 41.7647996,52.7902023 Z M40.3854083,49.5856858 C39.3845943,46.5530041 39.0152672,43.3098333 39.0152672,41.1964267 C39.0152672,36.2185624 43.30103,32.1832061 48.5877863,32.1832061 C53.8745426,32.1832061 58.1603053,36.2185624 58.1603053,41.1964267 C58.1603053,43.3087929 57.7913417,46.5498109 56.7916418,49.5812062 C60.2776209,50.9129519 62.7177238,52.5076658 62.7177238,52.5076658 C64.526259,53.7687532 65.9923664,56.3567732 65.9923664,58.2735146 L65.9923664,61.7668754 C65.9923664,63.6901784 58.4821796,66.9923652 48.5877863,66.9923664 C38.6933929,66.9923676 31.1832061,63.6836168 31.1832061,61.7668754 L31.1832061,58.2735146 C31.1832061,56.3502116 32.6241629,53.7448311 34.4760966,52.5016661 C34.4760966,52.5016661 36.9011501,50.9148226 40.3854083,49.5856858 Z M48.5877857,53.9389313 C52.0157553,53.9389307 54.6793893,47.6430569 54.6793893,41.1964267 C54.6793893,38.1894322 51.9973759,35.6641221 48.5877863,35.6641221 C45.1781966,35.6641221 42.4961832,38.1894322 42.4961832,41.1964267 C42.4961832,47.6430574 45.1598172,53.9389319 48.5877857,53.9389313 Z" id="Combined-Shape"></path>
            </g>
        </g>
    </g>
</svg>