<?xml version="1.0" encoding="UTF-8"?>
<svg width="89px" height="26px" viewBox="0 0 89 26" version="1.1" xmlns="http://www.w3.org/2000/svg" xmlns:xlink="http://www.w3.org/1999/xlink">
    <!-- Generator: Sketch 46.1 (44463) - http://www.bohemiancoding.com/sketch -->
    <title>vimeo</title>
    <desc>Created with Sketch.</desc>
    <defs></defs>
    <g id="Page-1" stroke="none" stroke-width="1" fill="none" fill-rule="evenodd" opacity="0.2">
        <g id="Landing-Desktop-F" transform="translate(-635.000000, -1162.000000)" fill="#3A2568">
            <g id="logos" transform="translate(352.000000, 1156.000000)">
                <path d="M344.739764,24.2808365 C344.78236,24.2780071 344.797982,24.2804882 344.810787,24.2756129 C346.538572,23.6207565 348.013728,22.6244553 349.125013,21.1403635 C349.418434,20.7485118 349.699885,20.3408588 349.778081,19.8493682 C349.922459,18.9426506 349.561096,18.2894047 348.420636,18.5206765 C348.01078,18.6038176 347.64638,18.7922129 347.326997,19.0543471 C346.247396,19.9403882 345.481237,21.0471671 344.999741,22.3468682 C344.770039,22.9669882 344.692019,23.6101353 344.739764,24.2808365 M366.850211,21.1775376 C366.842027,20.0714553 366.722819,19.2736918 366.315119,18.5431812 C366.096154,18.1508071 365.770566,17.9468282 365.292151,17.9665471 C364.230415,18.0103812 363.333827,18.4189047 362.633191,19.1868071 C361.171984,20.7883412 360.415726,22.6790412 360.392052,24.8436718 C360.384791,25.5095847 360.552095,26.13532 360.900741,26.70882 C361.21238,27.2214224 361.650531,27.5010988 362.277504,27.4732835 C363.149185,27.4345859 363.893122,27.1007153 364.491185,26.4940894 C366.023327,24.9400024 366.766867,23.0505647 366.850211,21.1775376 M371.850377,20.1541176 L371.850377,21.46 C371.817418,21.7394153 371.789211,22.0194835 371.750707,22.2981588 C371.466527,24.3549671 370.641358,26.1700129 369.273353,27.7464741 C367.706183,29.5525094 365.767882,30.7028612 363.367491,31.0440882 C363.01352,31.0944082 362.656865,31.1265329 362.301442,31.1670588 L361.333348,31.1670588 C360.985978,31.1234424 360.636672,31.0912306 360.291546,31.0342941 C358.483849,30.7359435 357.046536,29.8711882 356.070521,28.3102671 C355.975647,28.15848 355.890455,28.0007729 355.804207,27.8517282 C355.770279,27.8578224 355.754262,27.8569082 355.742557,27.8634812 C355.666121,27.9063576 355.589906,27.9498 355.514878,27.9950706 C353.134157,29.4311929 350.606198,30.4863459 347.827458,30.8825941 C346.481234,31.0746024 345.130434,31.1779847 343.776906,30.9480624 C342.684455,30.7624965 341.688329,30.3591094 340.896868,29.5702259 C340.544262,29.2187694 340.252117,28.8079388 339.921821,28.4111682 C339.812162,28.5009694 339.678477,28.6120129 339.54312,28.7210541 C338.241956,29.7695035 336.822685,30.5855929 335.145945,30.8849012 C334.508059,30.9987741 333.86322,31.04818 333.220581,30.9346553 C332.002014,30.7194894 331.296713,29.8997871 331.186438,28.6282494 C331.093105,27.5518541 331.262169,26.5021859 331.481399,25.4569576 C331.707449,24.3793435 331.96065,23.3071706 332.176359,22.2275976 C332.281661,21.7005871 332.308548,21.1612576 332.200473,20.62676 C332.044786,19.8567682 331.420145,19.5287741 330.719992,19.9020388 C330.367606,20.0898682 330.034097,20.3604471 329.774912,20.6631071 C328.56695,22.0738082 327.709658,23.6834388 327.142706,25.4416788 C326.684225,26.8636541 326.535799,28.3198 326.750892,29.8016718 C326.802289,30.1560012 326.912608,30.5019294 326.998592,30.8633541 C325.864249,30.8925188 324.733602,30.8432871 323.655497,30.4190494 C322.795565,30.0806953 322.192838,29.4865188 321.934269,28.5966906 C321.831827,28.2441894 321.760012,27.8754082 321.734753,27.5099353 C321.645336,26.21598 321.847272,24.9531918 322.189054,23.7058565 C322.442782,22.7800729 322.635917,21.8409259 322.566522,20.8732235 C322.495411,19.8814929 321.531013,19.4230847 320.701356,19.9927106 C320.452204,20.1637812 320.21568,20.3778153 320.034867,20.6175318 C318.557774,22.5760071 317.768645,24.7924812 317.599404,27.2204647 C317.514652,28.4365024 317.508888,29.6559788 317.875267,30.8619612 C316.875358,30.8940859 315.903434,30.8241341 314.967023,30.4816012 C313.866871,30.0791282 313.142428,29.3302918 312.828194,28.2045341 C312.811912,28.1461612 312.787754,28.0899212 312.767072,28.0322012 C312.736445,28.0440412 312.720427,28.0460435 312.710438,28.0547929 C312.666434,28.0930988 312.62463,28.1338859 312.581241,28.1728882 C311.70956,28.9562 310.773721,29.6487965 309.713437,30.1671012 C308.612449,30.7052988 307.455312,31.0145318 306.221123,30.9900682 C305.223545,30.9702624 304.438245,30.5718376 303.945528,29.6834459 C303.67477,29.19522 303.562471,28.6670776 303.557586,28.1158212 C303.547818,27.0105659 303.791205,25.9407 304.064956,24.8804976 C304.441809,23.4211741 304.851137,21.9700341 305.250608,20.5164565 C305.339673,20.1923365 305.34645,19.8725259 305.242907,19.55302 C305.08128,19.0545212 304.664823,18.8791847 304.209202,19.1387071 C303.892547,19.3190929 303.592394,19.5293835 303.294969,19.74024 C303.213209,19.7981776 303.151427,19.8988176 303.108259,19.9924494 C302.86223,20.5257282 302.65013,21.0758529 302.379415,21.5962471 C301.513939,23.2601588 300.408066,24.7678435 299.24006,26.2327824 C298.211723,27.5225153 297.123937,28.7568788 295.805788,29.7708094 C295.118969,30.2991259 294.383393,30.7374671 293.532966,30.9683471 C292.51717,31.2441494 291.685885,30.9788376 291.022784,30.1743271 C290.430618,29.4558306 290.012973,28.6401329 289.756736,27.7581835 C289.259355,26.0460412 288.804219,24.3218847 288.331085,22.6028647 C288.077048,21.6799541 287.828907,20.7528647 287.349877,19.9128341 C287.204662,19.6581871 287.010559,19.4218224 286.800967,19.2146659 C286.581385,18.9977153 286.305038,18.9456106 286.018702,19.1274329 C285.858527,19.2291612 285.691222,19.3199635 285.531355,19.4221706 C285.27591,19.5854059 285.024029,19.7539953 284.767132,19.9226282 C284.448717,19.5229847 284.145263,19.1420588 283.841765,18.7611765 L283.841765,18.7176471 C283.944163,18.6392071 284.051446,18.5662518 284.148211,18.4815 C285.11987,17.6306741 286.08,16.7667024 287.063717,15.9297624 C287.674848,15.4098035 288.318367,14.9247118 289.073085,14.6155659 C290.00272,14.2347271 291.00043,14.4990812 291.612398,15.2877906 C291.995103,15.7810224 292.216489,16.3523459 292.329008,16.9539659 C292.595454,18.3785529 292.823132,19.8102788 293.086718,21.2354318 C293.262031,22.1831976 293.465991,23.1276988 293.842008,24.0217059 C293.958575,24.2989012 294.119147,24.5668247 294.304845,24.8043212 C294.512721,25.0701553 294.760994,25.0937918 295.041389,24.9035247 C295.226647,24.7778118 295.403457,24.6282012 295.549991,24.4602647 C296.364819,23.5263412 297.001737,22.4779788 297.525256,21.3624506 C297.805828,20.7645741 297.991262,20.1424518 297.885035,19.46792 C297.796147,18.9033435 297.442968,18.5629871 296.866336,18.4961259 C296.345017,18.4356635 295.845084,18.5279459 295.35558,18.6987988 C295.291686,18.7210859 295.226031,18.7385847 295.121081,18.7704918 C295.518484,17.5364329 296.036327,16.4202953 296.963233,15.5338624 C298.020613,14.5226306 299.310379,14.1664294 300.750948,14.2275447 C302.165598,14.2874847 303.069843,15.0132941 303.379633,16.3756776 C303.452372,16.6954447 303.48762,17.0236129 303.543857,17.3709776 C303.958114,17.0004553 304.356177,16.6380729 304.761236,16.2835694 C305.4536,15.67764 306.155909,15.0821576 306.992959,14.6744176 C308.09113,14.1395282 309.374648,14.5189306 309.947056,15.5415671 C310.363468,16.2854847 310.439244,17.0945224 310.298386,17.9077388 C309.96941,19.8069706 309.594229,21.69828 309.250644,23.5950741 C309.158014,24.1064141 309.039247,24.6161435 309.096188,25.1473329 C309.170996,25.8453271 309.492931,26.3042141 310.043337,26.4475565 C310.412357,26.5436694 310.765624,26.4930882 311.077394,26.2903282 C311.596733,25.9525835 312.101682,25.5929435 312.606808,25.2344353 C312.661901,25.1953459 312.698117,25.1062412 312.709646,25.0350271 C312.782693,24.58428 312.846147,24.1320094 312.913122,23.6803482 C313.074662,22.59072 313.243242,21.5020929 313.393693,20.4110282 C313.436069,20.1037106 313.454375,19.7872082 313.432153,19.4785847 C313.403242,19.0777224 313.152285,18.9540988 312.78749,19.1292612 C312.642935,19.1986906 312.502826,19.2793506 312.368085,19.3661482 C312.088085,19.5466212 311.81297,19.7345812 311.526898,19.9254141 C311.173808,19.5312553 310.830002,19.1475 310.48316,18.7603494 C310.514755,18.7237847 310.531037,18.7004965 310.551587,18.6817353 C311.413587,17.8946365 312.263662,17.0941741 313.142428,16.3258365 C313.767289,15.7794553 314.423746,15.2673753 315.080906,14.7586471 C315.32293,14.5712529 315.610498,14.4538106 315.935382,14.4567271 C316.693796,14.4634741 317.243234,14.8246376 317.646577,15.4337012 C318.215861,16.2932765 318.414276,17.2393447 318.30717,18.2548859 C318.299249,18.3299306 318.297445,18.4055847 318.288996,18.5425282 C318.355662,18.4584729 318.387302,18.4223871 318.414716,18.3834718 C318.861932,17.7482471 319.392712,17.1903306 319.999003,16.7016694 C321.515392,15.4793635 323.23508,14.8223741 325.207133,14.8919776 C325.877582,14.9156576 326.512081,15.0824188 327.047657,15.5121847 C327.657117,16.0011941 327.941032,16.6678035 328.06112,17.4091965 C328.125366,17.8056624 328.141692,18.2097024 328.184992,18.6663259 C328.497819,18.36236 328.784991,18.0784176 329.077576,17.8000906 C329.573724,17.3281447 330.044878,16.8251624 330.577022,16.3965718 C331.872905,15.3527365 333.356378,14.8135812 335.048036,14.8864929 C336.507307,14.9493929 337.508008,15.7471129 337.843849,17.1456694 C338.072452,18.0977012 337.988315,19.0541294 337.808162,19.9966718 C337.556589,21.3128706 337.256744,22.6201459 336.973004,23.9302941 C336.837119,24.5577706 336.741233,25.1857694 336.867702,25.8267835 C336.931728,26.1512953 337.123191,26.3430859 337.450451,26.4315376 C337.99474,26.57858 338.471923,26.4398953 338.937268,26.1631353 C339.110865,26.0598835 339.171503,25.9518 339.151833,25.7498671 C338.998302,24.1725788 339.295683,22.6736435 340.008773,21.2597647 C340.936956,19.4194718 342.279703,17.9167494 343.948787,16.7097224 C346.33162,14.9865671 349.001449,14.3341047 351.924655,14.7624776 C352.767073,14.8858835 353.546918,15.2001224 354.12113,15.8523671 C354.99576,16.8458388 355.197519,18.019 354.917652,19.2752153 C354.685045,20.3192682 354.064584,21.1580365 353.344278,21.9252859 C351.514931,23.8737929 349.268863,25.1106376 346.662136,25.7223129 C346.265877,25.8152918 345.866362,25.89482 345.444669,25.9856659 C345.915339,26.6196718 346.539848,26.9468824 347.292014,27.0291094 C348.314806,27.1408929 349.326553,27.0061694 350.331259,26.8305282 C351.911674,26.5542906 353.416621,26.0360729 354.889005,25.4148647 C355.05807,25.34352 355.091073,25.2590729 355.074307,25.0898741 C354.999632,24.3359447 355.023218,23.5836259 355.152899,22.8355729 C355.40588,21.3761188 356.023172,20.0756341 356.922752,18.9028647 C357.892915,17.6381176 359.018325,16.5392612 360.421138,15.7393212 C362.130882,14.7643059 363.981791,14.3635306 365.940466,14.3895176 C366.935096,14.4027071 367.900814,14.5657247 368.783101,15.0363212 C370.404131,15.9010329 371.281357,17.3061188 371.670003,19.0439 C371.751719,19.4092424 371.791367,19.7838129 371.850377,20.1541176 Z M309.980345,6.52941176 C310.7047,6.66996824 311.217482,7.08645765 311.572025,7.71493529 C311.932596,8.35416471 311.89264,9.00484235 311.582498,9.63423412 C310.954732,10.9080353 309.471171,12.1214176 307.45353,11.9022471 C307.123453,11.8663788 306.790561,11.7797988 306.479802,11.6625741 C305.982818,11.4751365 305.675096,11.0934271 305.541059,10.5854824 C305.279233,9.59288118 305.581278,8.75563647 306.287064,8.04123176 C307.083277,7.23528471 308.019293,6.69007882 309.172558,6.56214588 C309.207937,6.55822824 309.241733,6.54064235 309.276276,6.52941176 L309.980345,6.52941176 Z" id="vimeo"></path>
            </g>
        </g>
    </g>
</svg>